<svg width="30" height="30" viewBox="0 0 30 30" fill="none" xmlns="http://www.w3.org/2000/svg">
<mask id="mask0_482279_3868" style="mask-type:alpha" maskUnits="userSpaceOnUse" x="0" y="0" width="30" height="30">
<rect width="30" height="30" fill="#D9D9D9"/>
</mask>
<g mask="url(#mask0_482279_3868)">
<path d="M4.62652 27.2024C3.95579 27.2024 3.38161 26.9635 2.90396 26.4859C2.42632 26.0083 2.1875 25.4341 2.1875 24.7633V7.69017C2.1875 7.01944 2.42632 6.44525 2.90396 5.96761C3.38161 5.48996 3.95579 5.25114 4.62652 5.25114H15.5107L13.0716 7.69017H4.62652V24.7633H21.6997V16.2877L24.1387 13.8487V24.7633C24.1387 25.4341 23.8999 26.0083 23.4223 26.4859C22.9446 26.9635 22.3704 27.2024 21.6997 27.2024H4.62652ZM18.2546 5.95236L19.9924 7.65968L11.9436 15.7085V17.4463H13.6509L21.7302 9.367L23.468 11.0743L15.3887 19.1536C15.1651 19.3772 14.906 19.555 14.6113 19.6871C14.3166 19.8192 14.0066 19.8853 13.6814 19.8853H10.7241C10.3786 19.8853 10.0889 19.7684 9.85518 19.5347C9.62144 19.3009 9.50457 19.0113 9.50457 18.6658V15.7085C9.50457 15.3833 9.56555 15.0733 9.6875 14.7786C9.80945 14.4839 9.98222 14.2247 10.2058 14.0011L18.2546 5.95236ZM23.468 11.0743L18.2546 5.95236L21.3034 2.90358C21.7912 2.41578 22.3755 2.17188 23.0564 2.17188C23.7373 2.17188 24.3115 2.41578 24.779 2.90358L26.4863 4.64139C26.9538 5.10887 27.1875 5.67797 27.1875 6.3487C27.1875 7.01944 26.9538 7.58854 26.4863 8.05602L23.468 11.0743Z" fill="#E7E7E7"/>
</g>
</svg>
