<svg width="30" height="30" viewBox="0 0 30 30" fill="none" xmlns="http://www.w3.org/2000/svg">
<mask id="mask0_482279_3880" style="mask-type:alpha" maskUnits="userSpaceOnUse" x="0" y="0" width="30" height="30">
<rect width="30" height="30" fill="#D9D9D9"/>
</mask>
<g mask="url(#mask0_482279_3880)">
<path d="M15 22.5C13.8333 22.5 12.7188 22.6823 11.6563 23.0469C10.5938 23.4115 9.625 23.9583 8.75 24.6875V25H21.25V24.6875C20.375 23.9583 19.4062 23.4115 18.3438 23.0469C17.2812 22.6823 16.1667 22.5 15 22.5ZM6.25 23.5625C7.375 22.4583 8.68229 21.5885 10.1719 20.9531C11.6615 20.3177 13.2708 20 15 20C16.7292 20 18.3385 20.3177 19.8281 20.9531C21.3177 21.5885 22.625 22.4583 23.75 23.5625V7.5H6.25V23.5625ZM15 17.5C13.7917 17.5 12.7604 17.0729 11.9062 16.2188C11.0521 15.3646 10.625 14.3333 10.625 13.125C10.625 11.9167 11.0521 10.8854 11.9062 10.0312C12.7604 9.17708 13.7917 8.75 15 8.75C16.2083 8.75 17.2396 9.17708 18.0938 10.0312C18.9479 10.8854 19.375 11.9167 19.375 13.125C19.375 14.3333 18.9479 15.3646 18.0938 16.2188C17.2396 17.0729 16.2083 17.5 15 17.5ZM15 15C15.5208 15 15.9635 14.8177 16.3281 14.4531C16.6927 14.0885 16.875 13.6458 16.875 13.125C16.875 12.6042 16.6927 12.1615 16.3281 11.7969C15.9635 11.4323 15.5208 11.25 15 11.25C14.4792 11.25 14.0365 11.4323 13.6719 11.7969C13.3073 12.1615 13.125 12.6042 13.125 13.125C13.125 13.6458 13.3073 14.0885 13.6719 14.4531C14.0365 14.8177 14.4792 15 15 15ZM6.25 27.5C5.5625 27.5 4.97396 27.2552 4.48438 26.7656C3.99479 26.276 3.75 25.6875 3.75 25V7.5C3.75 6.8125 3.99479 6.22396 4.48438 5.73438C4.97396 5.24479 5.5625 5 6.25 5H7.5V2.5H10V5H20V2.5H22.5V5H23.75C24.4375 5 25.026 5.24479 25.5156 5.73438C26.0052 6.22396 26.25 6.8125 26.25 7.5V25C26.25 25.6875 26.0052 26.276 25.5156 26.7656C25.026 27.2552 24.4375 27.5 23.75 27.5H6.25Z" fill="#E7E7E7"/>
</g>
</svg>
